<svg xmlns="http://www.w3.org/2000/svg" width="24" height="18" viewBox="0 0 24 18">
    <path fill="#fff" fill-rule="evenodd" d="M468 1092a1 1 0 0 1 1 1v3a1 1 0 0 1-2 0v-3a1 1 0 0 1 1-1zm4.664.014a1 1 0 0 1 .822 1.15l-.5 3a1 1 0 0 1-1.972-.328l.5-3a1 1 0 0 1 1.15-.822zm-9.328 0a1 1 0 0 1 1.15.822l.5 3a1 1 0 0 1-1.972.328l-.5-3a1 1 0 0 1 .822-1.15zM459.2 1090l1.487 8.179a1 1 0 0 0 .984.821h12.662a1 1 0 0 0 .984-.821L476.8 1090zm7.509-6.707a1 1 0 0 1 0 1.414l-3.295 3.293h9.172l-3.293-3.293a1 1 0 0 1 1.414-1.414l4.707 4.707H479a1 1 0 0 1 0 2h-.165l-1.553 8.537a3 3 0 0 1-2.951 2.463h-12.662a3 3 0 0 1-2.951-2.463l-1.553-8.537H457a1 1 0 0 1 0-2h3.586l4.707-4.707a1 1 0 0 1 1.414 0z" transform="translate(-456 -1083)"/>
</svg>
