<svg xmlns="http://www.w3.org/2000/svg" width="56" height="41.998" viewBox="0 0 56 41.998">
    <g>
        <path fill="#cc6262" fill-rule="evenodd" d="M401.334 1699a2.328 2.328 0 0 1 2.333-2.333h7a2.333 2.333 0 1 1 0 4.666h-7a2.328 2.328 0 0 1-2.333-2.333zm-4.667-14a2.337 2.337 0 0 1 2.34-2.333h11.653a2.333 2.333 0 1 1 0 4.666h-11.652a2.331 2.331 0 0 1-2.34-2.333zm46.667-6.036L430.3 1692l13.033 13.034zM427 1695.3l-3.017 3.015a2.333 2.333 0 0 1-3.29.009l-4.634-4.585a2.333 2.333 0 0 1 3.283-3.315l2.991 3 17.707-17.761h-45.708a2.333 2.333 0 1 1 0-4.666h49a4.66 4.66 0 0 1 4.664 4.669v32.661a4.664 4.664 0 0 1-4.664 4.669h-35a2.333 2.333 0 1 1 0-4.666h31.7z" transform="translate(-391.999 -1671)"/>
    </g>
</svg>
