<svg xmlns="http://www.w3.org/2000/svg" width="12" height="12" viewBox="0 0 12 12">
    <path fill="#293644" fill-rule="evenodd" d="M250 1920.2v-8.4a1.8 1.8 0 0 1 1.8-1.8h8.4a1.8 1.8 0 0 1 1.8 1.8v8.406a1.8 1.8 0 0 1-1.8 1.8h-8.4a1.8 1.8 0 0 1-1.8-1.806zm10.2.6a.6.6 0 0 0 .6-.6v-8.4a.6.6 0 0 0-.6-.6h-8.4a.6.6 0 0 0-.6.6v8.406a.6.6 0 0 0 .6.6h4.2v-3.6h-.6a.6.6 0 0 1 0-1.2h.6a3.362 3.362 0 0 1 .662-2.453 2.319 2.319 0 0 1 1.738-.847.6.6 0 0 1 0 1.2 1.137 1.137 0 0 0-.843.446 2.5 2.5 0 0 0-.357 1.648h1.2a.6.6 0 0 1 0 1.2h-1.2v3.6z" transform="translate(-250 -1910)"/>
</svg>
