<svg xmlns="http://www.w3.org/2000/svg" width="20" height="20" viewBox="0 0 20 20">
    <g>
        <g>
            <path fill="#cc6262" fill-rule="evenodd" d="M217 1916a1 1 0 1 1 1-1 1 1 0 0 1-1 1zm-2 4a3 3 0 1 0-3 3 3 3 0 0 0 3-3zm-8 0a5 5 0 1 1 5 5 5 5 0 0 1-5-5zm-3 5.005a3 3 0 0 0 2.995 2.995h10.01a3 3 0 0 0 2.995-2.995v-10.01a3 3 0 0 0-2.995-2.995h-10.01a3 3 0 0 0-2.995 2.995zm2.995-15.005h10.01a5 5 0 0 1 4.995 4.995v10.01a5 5 0 0 1-4.995 4.995h-10.01a5 5 0 0 1-4.995-4.995v-10.01a5 5 0 0 1 4.995-4.995z" transform="translate(-1341.999 -52) translate(1341.999 52) translate(-202 -1910)"/>
        </g>
    </g>
</svg>
