<svg xmlns="http://www.w3.org/2000/svg" width="21" height="21" viewBox="0 0 21 21">
    <g>
        <path fill="none" d="M0 0H21V21H0z" transform="translate(.249 -.42) translate(-.249 .42)"/>
        <path fill="#cc6262" d="M9.557 19.114a9.549 9.549 0 0 1-7.268-3.351L.906 17.146a.523.523 0 0 1-.375.156.532.532 0 0 1-.531-.531v-4.559a.532.532 0 0 1 .531-.531h4.558a.531.531 0 0 1 .376.907L3.8 14.255a7.433 7.433 0 0 0 13.194-4.7h2.124a9.568 9.568 0 0 1-9.561 9.559zM2.124 9.557H0a9.558 9.558 0 0 1 16.825-6.206l1.383-1.382a.53.53 0 0 1 .75 0 .534.534 0 0 1 .156.375V6.9a.532.532 0 0 1-.531.531h-4.558a.531.531 0 0 1-.376-.907l1.668-1.668a7.433 7.433 0 0 0-13.194 4.7z" transform="translate(.249 -.42) translate(.44 .552)"/>
    </g>
</svg>
