<svg xmlns="http://www.w3.org/2000/svg" width="12" height="10" viewBox="0 0 12 10">
    <path fill="#293644" fill-rule="evenodd" d="M753.646 1514.146a.5.5 0 0 1 .707 0l1.5 1.5a.5.5 0 0 1 0 .707l-1.5 1.5a.5.5 0 0 1-.707-.707l.646-.647h-.955a2 2 0 0 0-1.664.891L750.6 1519l1.073 1.609a2 2 0 0 0 1.664.891h.955l-.646-.646a.5.5 0 1 1 .707-.707l1.5 1.5a.5.5 0 0 1 0 .707l-1.5 1.5a.5.5 0 0 1-.707-.707l.646-.646h-.955a3 3 0 0 1-2.5-1.336L750 1519.9l-.842 1.262a3 3 0 0 1-2.5 1.336H744.5a.5.5 0 0 1 0-1h2.162a2 2 0 0 0 1.664-.891L749.4 1519l-1.073-1.609a2 2 0 0 0-1.664-.891H744.5a.5.5 0 0 1 0-1h2.162a3 3 0 0 1 2.5 1.336l.838 1.264.842-1.263a3 3 0 0 1 2.5-1.336h.955l-.646-.646a.5.5 0 0 1-.005-.709z" transform="translate(-744 -1514)"/>
</svg>
