<svg xmlns="http://www.w3.org/2000/svg" width="12" height="12" viewBox="0 0 12 12">
    <path fill="#293644" fill-rule="evenodd" d="M272.636 894.455a.546.546 0 0 1 .545-.545h.545a.545.545 0 1 1 0 1.091h-.545a.546.546 0 0 1-.545-.546zm.545 2.727h-4.364v2.182a.546.546 0 0 0 .545.545h3.273a.546.546 0 0 0 .545-.545zm1.091 1.091h1.091a.546.546 0 0 0 .545-.545v-4.364a.546.546 0 0 0-.545-.545h-8.727a.546.546 0 0 0-.545.545v4.364a.546.546 0 0 0 .545.545h1.091v-1.091a.545.545 0 1 1 0-1.091h6.545a.545.545 0 1 1 0 1.091zm0-6.545v-1.091a1.636 1.636 0 0 0-1.636-1.637h-3.273a1.636 1.636 0 0 0-1.636 1.636v1.091h-1.091a1.636 1.636 0 0 0-1.636 1.637v4.364a1.636 1.636 0 0 0 1.636 1.636h1.091a1.636 1.636 0 0 0 1.637 1.636h3.273a1.636 1.636 0 0 0 1.636-1.636h1.091a1.636 1.636 0 0 0 1.636-1.637v-4.364a1.636 1.636 0 0 0-1.636-1.636zm-4.909-1.636a.546.546 0 0 0-.545.545v1.091h4.364v-1.091a.546.546 0 0 0-.545-.545z" transform="translate(-265 -889)"/>
</svg>
