<svg xmlns="http://www.w3.org/2000/svg" width="12" height="12" viewBox="0 0 12 12">
    <path fill="#fff" fill-rule="evenodd" d="M553.1 746.7a1.564 1.564 0 0 1 1.587-1.7h1.949a1.644 1.644 0 0 1 1.559 1.123l.631 1.895a1.643 1.643 0 0 1-.4 1.681l-.305.305a6.5 6.5 0 0 0 1.969 1.958l.3-.3a1.644 1.644 0 0 1 1.681-.4l1.895.632a1.642 1.642 0 0 1 1.123 1.559v1.949a1.564 1.564 0 0 1-1.7 1.587A11.505 11.505 0 0 1 553.1 746.7zm1.587-.6a.469.469 0 0 0-.5.492 10.409 10.409 0 0 0 9.313 9.308.469.469 0 0 0 .492-.5v-1.949a.547.547 0 0 0-.375-.52l-1.895-.631a.547.547 0 0 0-.56.132l-.3.3a1.084 1.084 0 0 1-1.379.133 7.586 7.586 0 0 1-2.283-2.265 1.081 1.081 0 0 1 .142-1.363l.31-.31a.547.547 0 0 0 .132-.56l-.631-1.895a.548.548 0 0 0-.52-.375z" transform="translate(-553.089 -745)"/>
</svg>
